<svg width="720" height="1024" viewBox="0 0 720 1024" fill="none" xmlns="http://www.w3.org/2000/svg">
<g clip-path="url(#clip0_731_8211)">
<rect width="720" height="1024" fill="white"/>
<path d="M642.344 -31.3316C642.344 87.4096 933.343 551.168 371.343 448.668C-290.156 218.668 518.843 856.668 -149.657 1113.67C-348.657 424.668 -145.587 -51.8316 -50.1567 -51.8316C45.2737 -51.8316 642.344 -150.073 642.344 -31.3316Z" fill="#52C7D2"/>
<path d="M642.344 -31.3316C642.344 87.4096 933.343 551.168 371.343 448.668C-290.156 218.668 518.843 856.668 -149.657 1113.67C-348.657 424.668 -145.587 -51.8316 -50.1567 -51.8316C45.2737 -51.8316 642.344 -150.073 642.344 -31.3316Z" fill="#52C7D2"/>
<ellipse cx="89.7077" cy="168.5" rx="34.7077" ry="46.5" fill="url(#paint0_linear_731_8211)" fill-opacity="0.5"/>
<ellipse cx="137.477" cy="-14.5" rx="34.7077" ry="46.5" fill="url(#paint1_linear_731_8211)" fill-opacity="0.5"/>
<ellipse cx="324.078" cy="17.5" rx="34.7077" ry="46.5" fill="url(#paint2_linear_731_8211)" fill-opacity="0.5"/>
<ellipse cx="20.7077" cy="385.5" rx="34.7077" ry="46.5" fill="url(#paint3_linear_731_8211)" fill-opacity="0.5"/>
<ellipse cx="498.477" cy="27.5" rx="34.7077" ry="46.5" fill="url(#paint4_linear_731_8211)" fill-opacity="0.5"/>
<ellipse cx="685.078" cy="59.5" rx="34.7077" ry="46.5" fill="url(#paint5_linear_731_8211)" fill-opacity="0.5"/>
<ellipse cx="102.708" cy="907.5" rx="34.7077" ry="46.5" fill="url(#paint6_linear_731_8211)" fill-opacity="0.5"/>
<ellipse cx="171.708" cy="463.5" rx="34.7077" ry="46.5" fill="url(#paint7_linear_731_8211)" fill-opacity="0.5"/>
<ellipse cx="289.708" cy="371.5" rx="34.7077" ry="46.5" fill="url(#paint8_linear_731_8211)" fill-opacity="0.5"/>
<ellipse cx="333.708" cy="187.5" rx="34.7077" ry="46.5" fill="url(#paint9_linear_731_8211)" fill-opacity="0.5"/>
<ellipse cx="89.7077" cy="697.5" rx="34.7077" ry="46.5" fill="url(#paint10_linear_731_8211)" fill-opacity="0.5"/>
<path d="M684.415 366.5C684.415 392.181 668.876 413 649.708 413C630.539 413 615 392.181 615 366.5C615 340.819 630.539 320 649.708 320C668.876 320 684.415 340.819 684.415 366.5Z" fill="url(#paint11_linear_731_8211)" fill-opacity="0.5"/>
<path d="M-24.5846 907.5C-24.5846 933.181 -40.1238 954 -59.2923 954C-78.4608 954 -94 933.181 -94 907.5C-94 881.819 -78.4608 861 -59.2923 861C-40.1238 861 -24.5846 881.819 -24.5846 907.5Z" fill="url(#paint12_linear_731_8211)" fill-opacity="0.5"/>
<path d="M-13.5846 591.5C-13.5846 617.181 -29.1238 638 -48.2923 638C-67.4608 638 -83 617.181 -83 591.5C-83 565.819 -67.4608 545 -48.2923 545C-29.1238 545 -13.5846 565.819 -13.5846 591.5Z" fill="url(#paint13_linear_731_8211)" fill-opacity="0.5"/>
<path d="M568.415 238.5C568.415 264.181 552.876 285 533.708 285C514.539 285 499 264.181 499 238.5C499 212.819 514.539 192 533.708 192C552.876 192 568.415 212.819 568.415 238.5Z" fill="url(#paint14_linear_731_8211)" fill-opacity="0.5"/>
<path d="M464.769 817.977C476.046 818.137 488.919 817.658 496.1 809.945C497.802 808.136 499.079 805.849 498.813 803.562C498.228 798.508 491.419 796.381 485.834 795.53C453.226 790.689 419.874 792.551 386.841 794.466C366.255 795.636 345.404 796.913 325.722 802.551C315.456 805.477 307.317 813.084 320.243 816.488C332.744 819.733 351.947 816.594 365.085 816.807C398.331 817.126 431.524 817.552 464.769 817.977Z" fill="url(#paint15_linear_731_8211)"/>
<path d="M464.769 817.977C476.046 818.137 488.919 817.658 496.1 809.945C497.802 808.136 499.079 805.849 498.813 803.562C498.228 798.508 491.419 796.381 485.834 795.53C453.226 790.689 419.874 792.551 386.841 794.466C366.255 795.636 345.404 796.913 325.722 802.551C315.456 805.477 307.317 813.084 320.243 816.488C332.744 819.733 351.947 816.594 365.085 816.807C398.331 817.126 431.524 817.552 464.769 817.977Z" fill="url(#paint16_linear_731_8211)"/>
<path d="M349.448 723.182C349.767 722.916 350.139 722.65 350.352 722.278C350.778 721.427 350.246 720.469 349.767 719.671C348.384 717.544 347.054 715.416 345.671 713.341C345.458 712.969 345.193 712.596 344.767 712.49C344.235 712.33 343.703 712.65 343.278 712.969C341.469 714.192 339.607 715.469 337.799 716.693C335.511 718.235 333.224 719.778 331.203 721.639C330.83 722.012 330.404 722.384 330.298 722.916C330.192 723.342 330.298 723.767 330.405 724.193C331.309 727.118 334.447 731.374 337.852 730.203C341.948 728.714 345.991 725.682 349.448 723.182Z" fill="#C7B299"/>
<path d="M394.13 785.154C394.13 785.313 394.13 785.473 394.024 785.579C393.917 785.686 393.705 785.686 393.545 785.686C390.46 785.526 387.322 785.154 384.236 784.675C383.864 784.622 383.439 784.515 383.173 784.302C382.8 783.93 382.747 783.292 382.8 782.76C382.96 778.239 383.12 773.77 383.226 769.249C383.226 768.611 383.279 767.919 383.705 767.387C384.183 766.749 385.034 766.643 385.832 766.536C388.811 766.27 394.397 766.27 394.609 769.993C394.875 774.994 394.29 780.154 394.13 785.154Z" fill="#C7B299"/>
<path d="M396.629 781.963C396.416 785.527 398.65 789.091 401.948 790.421C404.236 791.378 406.842 791.219 409.342 791.219C416.204 791.113 423.013 791.697 429.768 792.974C430.832 793.187 431.949 793.4 432.853 794.091C433.704 794.783 434.236 795.793 434.662 796.804C435.566 798.985 436.204 801.272 436.577 803.613C422.587 803.985 408.598 804.304 394.661 804.677C390.299 804.783 385.884 804.89 381.575 804.464C380.671 804.358 379.713 804.198 379.128 803.507C378.543 802.815 378.596 801.804 378.65 800.9C378.809 797.708 379.022 794.57 379.181 791.378C379.288 789.41 378.703 785.048 380.033 783.453C381.416 781.75 384.926 782.548 386.894 782.495C390.086 782.442 393.384 782.229 396.629 781.963Z" fill="#333333"/>
<path d="M408.599 490.57C396.099 491.368 382.162 495.038 376.47 505.145C373.491 510.464 373.332 516.687 373.385 522.698C374.13 570.093 386.364 617.063 384.928 664.458C383.917 697.598 376.258 730.79 379.343 763.717C378.598 763.611 377.8 763.504 377.268 763.664C375.619 764.142 375.725 766.749 376.151 768.185C376.257 768.664 376.47 769.089 376.842 769.409C377.321 769.834 378.066 769.888 378.704 769.941C385.726 770.473 392.694 771.058 399.715 771.59C400.194 771.643 400.673 771.643 401.099 771.43C401.79 771.058 401.949 770.1 402.002 769.302C402.109 768.132 402.109 766.696 401.152 766.004C400.62 765.579 399.928 765.526 399.237 765.472C408.014 736.429 415.78 707.119 422.482 677.65C424.078 670.522 425.674 663.395 426.95 656.214C432.908 623.447 433.493 590.094 434.025 556.902C434.291 540.092 434.504 523.709 437.004 507.059C439.185 492.059 422.27 489.665 408.599 490.57Z" fill="#4D4D4D"/>
<path d="M339.713 729.675C340.404 730.739 340.776 732.122 340.298 733.292C339.659 734.888 337.692 735.739 337.372 737.388C337.213 738.292 337.532 739.197 337.904 740.048C338.596 741.697 339.234 743.345 340.244 744.835C341.308 746.484 342.745 747.814 344.075 749.303C346.203 751.75 347.958 754.516 349.66 757.229C350.139 757.974 350.617 758.718 350.936 759.57C351.734 761.697 351.416 764.038 350.777 766.219C350.086 768.4 349.128 770.421 348.49 772.602C347.373 771.059 345.99 769.783 344.607 768.453C339.128 763.293 334.021 757.814 328.861 752.388C324.393 747.654 319.925 742.867 315.457 738.132C314.287 736.909 313.063 735.526 313.01 733.877C312.903 732.441 313.701 731.111 314.606 729.994C317.318 726.749 321.361 724.941 325.138 723.132C326.574 722.44 328.223 721.43 329.925 721.536C331.84 721.643 333.063 723.132 334.287 724.409C335.989 726.111 338.17 727.6 339.713 729.675Z" fill="#333333"/>
<path d="M468.707 517.753C467.165 515.2 464.027 514.19 461.101 513.498C450.994 511.104 440.515 510.147 430.142 510.572C423.493 510.838 410.142 510.253 406.897 517.753C404.237 523.977 409.131 535.041 410.301 541.265C412.376 552.01 414.025 562.861 415.249 573.713C416.578 585.415 417.376 597.171 417.748 608.927C417.802 610.31 417.854 611.693 417.961 613.076C417.376 614.778 416.206 616.906 415.567 618.555C413.918 622.917 412.057 627.172 409.556 631.161C406.152 636.534 401.578 641.109 397.163 645.736C383.758 659.779 371.311 674.727 359.874 690.312C355.14 696.749 350.406 703.557 344.129 708.504C343.118 707.653 342.161 706.802 341.15 705.898C340.778 705.579 340.405 705.26 339.927 705.313C339.661 705.366 339.395 705.526 339.182 705.685C337.958 706.696 335.884 708.983 336.15 710.792C336.416 712.547 339.128 714.462 340.299 715.632C342.267 717.707 344.289 719.781 345.938 722.122C347.055 723.718 348.065 725.473 349.501 726.803C350.99 728.133 353.065 728.931 354.927 728.239C356.682 727.601 357.693 725.792 358.544 724.143C358.704 723.824 358.916 723.452 358.863 723.08C358.81 722.654 358.544 722.335 358.278 722.016C364.129 716.909 369.077 710.739 374.715 705.313C380.567 699.621 387.215 694.727 393.758 689.781C414.77 673.769 435.887 656.428 455.249 638.715C458.015 633.13 458.92 626.906 459.824 620.735C464.346 588.766 467.644 556.638 469.612 524.456C469.771 522.222 469.878 519.775 468.707 517.753Z" fill="#4D4D4D"/>
<path d="M515.357 350.037C516.58 350.569 518.016 350.941 519.293 350.356C521.155 349.505 521.687 347.111 522.91 345.462C524.081 343.973 525.889 343.122 527.432 342.058C531.474 339.292 534.028 334.558 534.187 329.664C534.241 328.494 534.081 327.323 533.549 326.313C532.326 324.079 529.24 323.44 526.847 324.238C524.453 325.036 522.591 326.951 520.996 328.919C518.176 332.324 515.835 336.047 513.92 340.037C513.069 341.792 511.58 344.292 511.421 346.26C511.261 348.282 513.495 349.239 515.357 350.037Z" fill="#C7B299"/>
<path d="M361.948 400.354C364.502 382.907 368.331 365.087 378.385 350.618C388.385 336.15 405.939 325.617 423.333 328.543C427.269 329.181 431.206 330.564 434.185 333.224C436.525 335.299 438.174 338.011 439.557 340.831C444.451 350.512 447.11 361.151 449.557 371.736C460.036 417.057 467.803 462.963 472.856 509.241C473.175 512.22 473.388 515.571 471.526 517.858C469.558 520.305 466.047 520.677 462.909 520.89C448.121 521.901 433.387 522.911 418.599 523.922C404.822 524.88 390.672 525.837 377.002 523.018C359.235 519.4 360.299 513.283 358.916 496.421C356.309 464.399 357.32 432.11 361.948 400.354Z" fill="#537082"/>
<path d="M411.204 238.857C402.427 246.517 396.948 257.368 393.863 268.592C390.512 280.827 389.98 294.391 395.459 305.88C400.938 317.317 413.491 325.935 426.045 324.073C434.449 322.796 441.631 317.317 447.11 310.828C461.206 294.178 465.142 269.869 458.227 249.336C455.408 240.985 450.992 230.718 441.949 228.538C432.162 226.197 418.332 232.633 411.204 238.857Z" fill="#C7B299"/>
<path d="M452.324 373.49C458.814 389.341 465.25 405.246 471.74 421.098C473.495 425.459 475.304 430.087 474.453 434.715C472.964 442.854 464.08 447.215 456.048 449.024C440.143 426.47 423.387 404.448 405.887 383.118C395.94 370.989 380.407 342.957 403.28 334.499C429.132 324.977 444.558 354.5 452.324 373.49Z" fill="#97A8B2"/>
<path d="M508.71 349.661C510.784 346.522 519.721 347.639 522.38 350.299C515.04 377.055 504.348 403.971 498.55 431.1C496.741 439.504 494.507 448.813 487.379 453.6C484.347 455.675 480.677 456.632 477.06 457.271C470.517 458.388 462.645 457.803 458.974 452.324C453.708 444.451 460.197 436.791 465.41 431.312C471.528 424.876 474.081 420.727 477.857 412.056C486.581 391.843 496.529 367.959 508.71 349.661Z" fill="#97A8B2"/>
<path d="M508.709 349.659C511.262 348.808 513.337 345.031 514.773 343.275C520.358 336.36 525.996 329.498 532.326 323.221C532.699 322.849 533.124 322.37 533.124 321.838C533.124 321.413 532.805 321.041 532.486 320.721C530.731 318.807 526.316 316.785 523.55 316.998C522.486 317.051 521.528 317.636 520.624 318.168C517.379 320.189 514.454 322.689 511.953 325.562C509.453 328.381 507.326 331.573 505.251 334.765C503.336 337.637 501.475 340.509 499.56 343.382C499.347 343.754 499.081 344.126 499.134 344.552C499.347 346.041 502.804 346.467 503.921 347.265C504.879 347.956 505.464 349.18 506.581 349.605C507.326 349.871 508.017 349.871 508.709 349.659Z" fill="#5E625E"/>
<path d="M506.688 344.764C507.008 344.977 507.38 345.189 507.752 345.243C508.55 345.296 509.189 344.604 509.668 343.966C513.072 339.551 516.849 335.349 520.891 331.519C523.923 328.646 527.328 325.774 528.657 321.785C528.711 321.572 528.817 321.306 528.711 321.093C528.604 320.933 528.445 320.827 528.232 320.721C527.328 320.295 526.423 319.816 525.519 319.391C524.934 319.125 524.348 318.806 523.71 318.806C522.806 318.806 522.008 319.391 521.317 319.923C516.955 323.327 513.019 327.317 509.668 331.732C507.965 333.913 506.475 336.253 505.092 338.647C504.667 339.391 503.124 341.359 503.284 342.211C503.444 343.168 505.891 344.232 506.688 344.764Z" fill="white"/>
<path d="M505.144 344.978C505.303 345.031 505.41 345.084 505.516 345.191C505.623 345.297 505.729 345.457 505.676 345.563C505.623 345.723 505.463 345.829 505.303 345.829C505.144 345.829 504.984 345.829 504.825 345.776C504.399 345.616 503.974 345.457 503.548 345.191C503.229 344.978 502.963 344.553 503.495 344.393C503.92 344.34 504.718 344.818 505.144 344.978Z" fill="white"/>
<path d="M454.878 371.891C452.165 367.422 451.154 362.05 450.41 357.369C449.293 350.135 444.984 333.698 440.463 317.368C440.356 317.421 440.303 317.527 440.196 317.58C444.718 333.857 448.973 350.241 450.09 357.422C450.835 362.156 451.845 367.529 454.612 372.05C455.995 374.337 457.803 376.359 459.559 378.327L459.772 378.114C458.016 376.146 456.208 374.125 454.878 371.891Z" fill="#E5E5E5"/>
<path d="M501.368 345.457C495.836 351.361 493.708 361.521 491.527 370.032C490.357 374.447 490.304 379.075 490.25 383.543V385.032C490.038 396.948 488.92 410.672 481.792 421.736C479.186 425.779 474.452 429.981 469.718 428.438C467.697 427.8 465.941 426.098 464.664 423.704C462.802 420.193 462.43 416.044 462.111 411.789C461.898 408.331 461.686 404.767 461.526 401.363C461.047 392.214 460.568 382.799 459.185 373.596C456.951 358.862 452.696 347.106 446.206 337.744C440.887 330.084 433.812 323.807 427.057 318.009L426.791 317.743C424.556 315.828 422.269 313.86 420.354 311.573C414.078 304.072 412.003 292.636 414.45 280.189C414.982 280.295 415.567 280.242 415.992 279.976C416.152 279.337 416.312 278.699 416.152 278.061C415.992 277.423 415.354 276.891 414.716 277.05L415.035 277.21C414.024 276.572 412.588 277.901 412.96 279.072C413.12 279.55 413.493 279.816 413.918 280.029C411.365 292.689 413.546 304.285 419.929 311.945C421.844 314.285 424.184 316.254 426.419 318.168L426.684 318.435C433.44 324.18 440.462 330.456 445.728 338.063C452.217 347.372 456.419 359.021 458.6 373.649C459.983 382.799 460.462 392.267 460.941 401.363C461.1 404.767 461.313 408.331 461.526 411.789C461.792 416.097 462.217 420.3 464.132 423.917C465.462 426.47 467.377 428.225 469.505 428.917C470.25 429.183 470.995 429.289 471.739 429.289C475.995 429.289 479.931 425.566 482.218 422.002C489.399 410.831 490.569 397.001 490.782 384.98V383.49C490.835 379.022 490.888 374.447 492.006 370.085C494.186 361.681 496.208 351.627 501.74 345.776L501.368 345.457Z" fill="#E5E5E5"/>
<path d="M459.398 384.556C459.345 384.556 459.239 384.556 459.133 384.45C459.027 384.344 459.026 384.237 459.026 384.184C459.026 383.865 459.026 383.493 459.026 383.173C459.026 382.801 459.026 382.376 458.973 381.95C458.92 381.418 458.707 380.886 458.547 380.407C458.494 380.194 458.388 379.982 458.335 379.769C458.122 378.971 457.909 378.014 458.335 377.482C458.548 377.216 458.92 377.109 459.452 377.216C459.824 377.269 460.197 377.482 460.303 377.801C460.409 378.014 460.41 378.226 460.463 378.386L460.995 384.45L459.398 384.556Z" fill="#E5E5E5"/>
<path d="M466.897 257.691C464.343 254.286 462.429 250.51 461.099 246.467C460.194 243.648 458.226 241.946 456.258 239.871C456.152 237.85 454.875 236.041 453.651 234.392C448.811 228.115 443.013 222.051 435.459 219.604C431.257 218.221 426.789 218.009 422.321 218.009C417.746 217.956 413.171 218.115 408.756 219.339C404.394 220.562 400.192 222.902 397.532 226.626C396.628 227.903 396.202 229.286 396.096 230.722C395.777 230.669 395.458 230.616 395.139 230.616C383.277 229.977 376.202 246.361 373.223 258.808C372.638 261.255 372.106 263.808 370.989 265.989C369.872 268.17 368.064 269.925 366.042 269.978C368.862 272 372.372 272.585 375.51 271.574C375.829 275.351 373.702 278.649 372.638 282.213C371.521 286.043 371.681 290.458 373.117 294.128C374.074 291.362 375.83 289.075 378.011 287.851C379.873 292.958 382.213 298.596 386.415 300.245C387.958 300.83 389.872 301.043 390.724 302.852C391.202 303.863 391.149 305.139 391.628 306.097C392.32 307.427 393.649 307.799 394.873 308.171C396.096 308.544 397.32 309.129 398.49 309.82C398.969 312.427 399.713 314.874 401.628 316.629C401.522 315.193 401.629 313.703 401.948 312.267C402.533 312.799 403.118 313.331 403.65 313.916C403.437 312.267 403.331 310.618 403.171 308.969C403.278 308.809 403.33 308.597 403.437 308.437C404.235 307.001 405.298 305.724 405.99 304.235C407.107 301.788 407.16 298.809 408.916 296.788C410.512 294.873 413.544 293.49 413.118 291.043C412.906 289.979 412.107 289.234 411.522 288.383C410.033 286.309 409.714 283.596 409.714 281.043C409.661 278.436 410.193 275.351 412.533 274.128C414.235 273.276 416.416 273.808 417.958 274.978C419.501 276.149 420.512 277.851 421.523 279.5C424.395 275.617 423.438 270.244 424.289 265.51C424.608 263.861 425.193 262.212 426.47 261.148C427.746 260.085 429.768 259.765 431.044 260.882C432.321 262 432.428 264.127 433.864 264.978C435.087 265.723 436.683 265.191 438.012 264.606C440.193 263.702 442.427 262.744 444.608 261.84C445.087 261.627 445.566 261.414 446.098 261.521C447.268 261.68 447.8 263.01 448.226 264.127C448.917 265.936 449.822 267.638 451.045 269.181C451.311 269.5 451.577 269.872 452.002 269.978C453.066 270.297 453.864 268.968 454.768 268.276C456.311 267.106 458.705 268.063 459.716 269.712C460.726 271.361 460.779 273.383 460.832 275.298C463.599 271.574 465.407 267.159 466.099 262.585C468.971 262.744 471.897 262.904 474.769 263.01C471.418 262.744 468.812 260.244 466.897 257.691Z" fill="#AA6A64"/>
<path d="M438.651 448.497C439.024 447.965 439.503 447.38 440.194 447.38C440.62 447.433 440.992 447.699 441.258 448.018C442.588 449.241 443.918 450.412 445.247 451.635C445.62 451.954 445.992 452.274 446.152 452.752C446.524 453.603 446.099 454.614 445.62 455.465C443.173 459.721 439.396 462.965 435.567 465.997C430.726 469.88 425.779 473.604 420.725 477.221C418.704 478.657 416.311 480.094 413.917 479.402C409.555 471.955 419.023 468.976 423.651 464.987C429.343 460.093 434.396 454.614 438.651 448.497Z" fill="#4D4D4D"/>
<path d="M403.812 326.681C407.855 326.149 411.95 325.777 416.046 325.511C421.951 325.139 428.281 325.085 433.228 328.33C438.76 332.001 441.207 339.075 441.313 345.725C438.175 343.171 435.037 340.671 431.898 338.118C429.345 336.096 426.792 334.022 423.76 332.798C419.983 331.309 415.834 331.256 411.738 331.203C409.982 331.203 406.046 331.948 404.504 331.096C402.642 330.139 403.44 328.543 403.812 326.681Z" fill="#4D4D4D"/>
</g>
<defs>
<linearGradient id="paint0_linear_731_8211" x1="89.7077" y1="122" x2="89.7077" y2="215" gradientUnits="userSpaceOnUse">
<stop stop-color="white"/>
<stop offset="1" stop-color="white" stop-opacity="0"/>
</linearGradient>
<linearGradient id="paint1_linear_731_8211" x1="137.477" y1="-61" x2="137.477" y2="32" gradientUnits="userSpaceOnUse">
<stop stop-color="white"/>
<stop offset="1" stop-color="white" stop-opacity="0"/>
</linearGradient>
<linearGradient id="paint2_linear_731_8211" x1="324.078" y1="-29" x2="324.078" y2="64" gradientUnits="userSpaceOnUse">
<stop stop-color="white"/>
<stop offset="1" stop-color="white" stop-opacity="0"/>
</linearGradient>
<linearGradient id="paint3_linear_731_8211" x1="20.7077" y1="339" x2="20.7077" y2="432" gradientUnits="userSpaceOnUse">
<stop stop-color="white"/>
<stop offset="1" stop-color="white" stop-opacity="0"/>
</linearGradient>
<linearGradient id="paint4_linear_731_8211" x1="498.477" y1="-19" x2="498.477" y2="74" gradientUnits="userSpaceOnUse">
<stop stop-color="white"/>
<stop offset="1" stop-color="white" stop-opacity="0"/>
</linearGradient>
<linearGradient id="paint5_linear_731_8211" x1="685.078" y1="13" x2="685.078" y2="106" gradientUnits="userSpaceOnUse">
<stop stop-color="white"/>
<stop offset="1" stop-color="white" stop-opacity="0"/>
</linearGradient>
<linearGradient id="paint6_linear_731_8211" x1="102.708" y1="861" x2="102.708" y2="954" gradientUnits="userSpaceOnUse">
<stop stop-color="white"/>
<stop offset="1" stop-color="white" stop-opacity="0"/>
</linearGradient>
<linearGradient id="paint7_linear_731_8211" x1="171.708" y1="417" x2="171.708" y2="510" gradientUnits="userSpaceOnUse">
<stop stop-color="white"/>
<stop offset="1" stop-color="white" stop-opacity="0"/>
</linearGradient>
<linearGradient id="paint8_linear_731_8211" x1="289.708" y1="325" x2="289.708" y2="418" gradientUnits="userSpaceOnUse">
<stop stop-color="white"/>
<stop offset="1" stop-color="white" stop-opacity="0"/>
</linearGradient>
<linearGradient id="paint9_linear_731_8211" x1="333.708" y1="141" x2="333.708" y2="234" gradientUnits="userSpaceOnUse">
<stop stop-color="white"/>
<stop offset="1" stop-color="white" stop-opacity="0"/>
</linearGradient>
<linearGradient id="paint10_linear_731_8211" x1="89.7077" y1="651" x2="89.7077" y2="744" gradientUnits="userSpaceOnUse">
<stop stop-color="white"/>
<stop offset="1" stop-color="white" stop-opacity="0"/>
</linearGradient>
<linearGradient id="paint11_linear_731_8211" x1="295.208" y1="192" x2="295.208" y2="954" gradientUnits="userSpaceOnUse">
<stop stop-color="white"/>
<stop offset="1" stop-color="white" stop-opacity="0"/>
</linearGradient>
<linearGradient id="paint12_linear_731_8211" x1="295.208" y1="192" x2="295.208" y2="954" gradientUnits="userSpaceOnUse">
<stop stop-color="white"/>
<stop offset="1" stop-color="white" stop-opacity="0"/>
</linearGradient>
<linearGradient id="paint13_linear_731_8211" x1="295.208" y1="192" x2="295.208" y2="954" gradientUnits="userSpaceOnUse">
<stop stop-color="white"/>
<stop offset="1" stop-color="white" stop-opacity="0"/>
</linearGradient>
<linearGradient id="paint14_linear_731_8211" x1="295.208" y1="192" x2="295.208" y2="954" gradientUnits="userSpaceOnUse">
<stop stop-color="white"/>
<stop offset="1" stop-color="white" stop-opacity="0"/>
</linearGradient>
<linearGradient id="paint15_linear_731_8211" x1="-94.0223" y1="572.269" x2="684.234" y2="572.269" gradientUnits="userSpaceOnUse">
<stop stop-color="#4D4D4D"/>
<stop offset="1"/>
</linearGradient>
<linearGradient id="paint16_linear_731_8211" x1="-94.0223" y1="572.269" x2="684.234" y2="572.269" gradientUnits="userSpaceOnUse">
<stop/>
<stop offset="1"/>
</linearGradient>
<clipPath id="clip0_731_8211">
<rect width="720" height="1024" fill="white"/>
</clipPath>
</defs>
</svg>
